<?xml version="1.0" standalone="no"?>
<!DOCTYPE svg PUBLIC "-//W3C//DTD SVG 20010904//EN"
 "http://www.w3.org/TR/2001/REC-SVG-20010904/DTD/svg10.dtd">
<svg version="1.0" xmlns="http://www.w3.org/2000/svg"
 width="1000.000000pt" height="1000.000000pt" viewBox="0 0 1000.000000 1000.000000"
 preserveAspectRatio="xMidYMid meet">
<metadata>
Created by potrace 1.11, written by Peter Selinger 2001-2013
</metadata>
<g transform="translate(0.000000,1000.000000) scale(0.100000,-0.100000)"
fill="#000000" stroke="none">
<path d="M4738 9994 c-2 -1 -48 -5 -103 -8 -88 -6 -138 -11 -295 -31 -19 -3
-55 -7 -80 -10 -25 -3 -52 -7 -60 -10 -8 -2 -35 -7 -60 -10 -25 -3 -52 -8 -60
-10 -8 -2 -29 -7 -47 -10 -140 -23 -501 -120 -669 -179 -874 -307 -1634 -836
-2226 -1551 -337 -407 -654 -958 -823 -1430 -4 -11 -23 -63 -42 -115 -60 -170
-159 -539 -178 -666 -4 -21 -10 -55 -15 -74 -8 -32 -20 -107 -26 -155 -10 -92
-14 -123 -18 -145 -6 -32 -13 -111 -23 -230 -14 -183 -6 -767 12 -862 2 -9 6
-43 10 -75 3 -32 7 -69 10 -83 2 -14 7 -45 10 -70 18 -151 73 -407 130 -615 9
-33 21 -76 25 -95 15 -59 115 -343 151 -425 4 -11 20 -49 34 -85 51 -125 213
-446 290 -575 121 -203 296 -458 396 -580 182 -220 234 -279 384 -428 553
-552 1193 -949 1940 -1205 235 -81 480 -142 785 -196 30 -6 237 -33 300 -40
278 -31 878 -26 1090 9 14 2 50 7 80 10 51 6 73 9 140 20 14 2 41 7 60 10 30
5 75 13 155 29 213 43 453 111 678 193 242 87 315 119 572 249 149 75 280 149
420 237 43 27 171 111 180 119 6 5 35 26 65 48 30 22 60 43 65 47 6 5 51 39
100 78 50 38 92 72 95 75 3 3 34 30 70 60 210 178 505 487 670 700 19 25 38
50 43 55 32 40 116 158 181 255 42 63 81 122 86 130 79 116 268 477 347 660
158 367 283 785 339 1135 2 11 7 47 13 80 5 33 12 81 15 108 9 75 16 129 21
172 20 175 27 690 12 855 -4 41 -10 104 -13 140 -3 36 -7 76 -9 90 -2 14 -6
43 -9 65 -18 137 -21 158 -31 205 -3 14 -8 43 -11 65 -29 200 -176 705 -274
940 -304 725 -687 1282 -1236 1795 -608 568 -1387 993 -2184 1189 -112 27
-259 60 -305 67 -27 4 -54 8 -60 10 -21 4 -92 15 -130 20 -22 3 -51 7 -65 9
-31 6 -193 23 -280 31 -65 5 -637 13 -642 8z"/>
</g>
</svg>
